<?xml version="1.0" standalone="no"?>
<!DOCTYPE svg PUBLIC "-//W3C//DTD SVG 20010904//EN"
 "http://www.w3.org/TR/2001/REC-SVG-20010904/DTD/svg10.dtd">
<svg version="1.0" xmlns="http://www.w3.org/2000/svg"
 width="260.000000pt" height="260.000000pt" viewBox="0 0 260.000000 260.000000"
 preserveAspectRatio="xMidYMid meet">
<metadata>
Created by potrace 1.14, written by Peter Selinger 2001-2017
</metadata>
<g transform="translate(0.000000,260.000000) scale(0.100000,-0.100000)"
fill="#000000" stroke="none">
<path d="M1471 2494 c-34 -31 -82 -87 -107 -126 -31 -47 -49 -66 -54 -57 -6 9
-24 -3 -61 -38 l-53 -51 -57 38 -56 39 -34 -51 c-19 -29 -37 -56 -40 -60 -3
-5 -34 1 -68 12 -60 21 -63 21 -76 4 -7 -11 -11 -22 -9 -26 3 -4 -2 -18 -11
-31 -8 -13 -12 -26 -9 -29 12 -12 -36 -28 -67 -23 -42 8 -41 8 -65 6 -16 -1
-21 -7 -20 -23 1 -13 0 -27 -3 -33 -3 -5 -7 -19 -8 -30 -2 -11 -8 -22 -14 -23
-6 -3 -6 -9 2 -18 6 -8 8 -14 3 -15 -5 0 -33 -2 -63 -4 -63 -3 -71 -12 -71
-82 0 -60 -7 -83 -25 -83 -7 0 -26 -7 -41 -15 -16 -8 -36 -15 -45 -15 -17 0
-18 -9 -1 -94 11 -55 6 -65 -61 -105 -40 -25 -43 -40 -13 -95 8 -16 13 -33 10
-38 -3 -4 0 -8 5 -8 23 0 9 -25 -38 -69 -41 -39 -47 -49 -40 -68 5 -13 13 -23
19 -23 5 0 10 -5 10 -10 0 -6 9 -23 21 -39 l21 -28 -41 -57 c-34 -49 -38 -61
-28 -77 6 -10 15 -19 19 -19 9 0 68 -60 68 -69 0 -4 -5 -12 -12 -19 -7 -7 -8
-12 -2 -12 5 0 5 -3 -1 -8 -5 -4 -17 -28 -26 -54 l-16 -47 24 -6 c14 -3 30
-10 36 -15 7 -6 22 -18 35 -28 25 -18 25 -16 -3 -138 -4 -17 3 -23 45 -34 28
-8 50 -17 50 -22 0 -4 7 -8 15 -8 12 0 15 -14 15 -67 0 -38 4 -72 8 -78 4 -5
21 -11 37 -11 74 -4 91 -8 92 -23 0 -9 4 -32 7 -51 4 -19 8 -44 10 -55 2 -17
9 -20 47 -16 99 7 91 12 117 -57 14 -34 31 -62 38 -62 8 0 36 9 64 19 l49 19
25 -33 c14 -18 31 -45 37 -59 l12 -25 36 20 c20 11 48 27 62 36 26 16 27 16
72 -30 25 -26 48 -47 52 -47 4 0 26 20 49 45 32 34 47 43 64 38 12 -3 22 -9
22 -14 0 -5 7 -9 15 -9 8 0 15 -3 15 -7 0 -5 12 -13 25 -20 24 -11 28 -9 53
30 50 77 50 77 89 60 20 -8 37 -12 40 -9 3 3 12 -2 21 -10 19 -20 27 -11 55
62 22 57 24 59 58 57 19 -1 34 -2 34 -3 0 0 16 -3 35 -5 28 -3 36 0 37 13 0 9
3 35 7 57 4 22 7 46 8 52 2 15 15 19 84 28 l51 6 2 72 c2 77 5 84 36 90 11 2
33 9 48 15 16 7 33 12 38 12 6 0 8 8 6 18 -3 9 -9 35 -13 57 -4 22 -9 47 -10
55 -3 14 42 59 59 60 5 0 20 8 33 19 21 16 22 20 9 31 -8 7 -12 16 -9 21 2 5
-3 20 -12 34 -9 14 -13 25 -8 25 4 0 3 5 -3 11 -16 16 -8 32 43 83 l45 44 -39
52 c-37 48 -46 90 -21 90 5 0 9 6 9 13 0 6 9 23 20 37 11 14 20 32 20 40 0 16
-42 70 -54 70 -11 0 -36 27 -36 39 0 6 5 11 12 11 6 0 8 3 5 7 -4 3 -2 12 4
20 6 7 8 13 4 13 -4 0 0 11 9 25 9 14 13 25 9 25 -5 0 -2 4 6 9 11 7 1 18 -41
45 -31 19 -58 42 -62 51 -3 9 1 43 8 76 l14 59 -36 16 c-20 8 -46 17 -59 20
-31 8 -32 11 -34 88 -1 37 -5 69 -9 71 -4 3 -30 6 -56 7 -67 4 -81 20 -83 98
-2 50 -18 57 -91 46 -19 -3 -40 -2 -46 2 -12 9 -49 84 -46 95 4 15 -23 34 -38
27 -34 -17 -91 -40 -98 -40 -4 0 -23 25 -42 55 -19 30 -39 55 -44 55 -5 0 -24
-10 -43 -22 -35 -21 -35 -21 -24 -1 31 59 142 182 164 183 13 0 7 20 -19 60
-15 22 -33 40 -40 40 -7 0 -40 -25 -73 -56z"/>
</g>
</svg>
